<?xml version="1.0" standalone="no"?>
<!DOCTYPE svg PUBLIC "-//W3C//DTD SVG 20010904//EN"
 "http://www.w3.org/TR/2001/REC-SVG-20010904/DTD/svg10.dtd">
<svg version="1.0" xmlns="http://www.w3.org/2000/svg"
 width="456.000000pt" height="396.000000pt" viewBox="0 0 456.000000 396.000000"
 preserveAspectRatio="xMidYMid meet">

<g transform="translate(0.000000,396.000000) scale(0.100000,-0.100000)"
fill="#000000" stroke="none">
<path d="M4296 3821 c-4 -5 -15 -63 -27 -128 -68 -394 -175 -718 -361 -1087
-284 -567 -702 -1025 -1213 -1333 -377 -227 -807 -368 -1305 -429 -152 -19
-639 -25 -823 -11 -91 8 -106 11 -96 23 6 8 15 14 20 14 4 0 110 50 235 110
125 61 230 110 234 110 4 0 19 9 34 21 33 26 35 65 3 80 -20 9 -70 -12 -366
-155 -189 -91 -354 -172 -367 -181 -47 -31 -33 -52 119 -177 78 -64 216 -178
307 -252 166 -137 209 -160 224 -120 13 33 4 52 -42 90 -26 21 -132 108 -235
193 -104 84 -186 155 -183 158 2 3 82 -1 176 -8 209 -15 589 -7 780 16 777 94
1421 398 1940 917 374 374 663 845 849 1383 101 292 195 719 167 763 -8 14
-62 16 -70 3z"/>
</g>
</svg>
