<?xml version="1.0" standalone="no"?>
<!DOCTYPE svg PUBLIC "-//W3C//DTD SVG 20010904//EN"
 "http://www.w3.org/TR/2001/REC-SVG-20010904/DTD/svg10.dtd">
<svg version="1.0" xmlns="http://www.w3.org/2000/svg"
 width="1229.000000pt" height="274.000000pt" viewBox="0 0 1229.000000 274.000000"
 preserveAspectRatio="xMidYMid meet">

<g transform="translate(0.000000,274.000000) scale(0.100000,-0.100000)"
fill="#000000" stroke="none">
<path d="M5702 2598 c3 -47 6 -53 26 -56 22 -3 23 -1 20 50 -3 47 -6 53 -26
56 -22 3 -23 1 -20 -50z"/>
<path d="M5305 2490 c-6 -10 121 -150 137 -150 5 0 11 7 15 15 3 10 -15 38
-53 78 -59 62 -86 78 -99 57z"/>
<path d="M5710 2470 c0 -33 24 -50 42 -32 17 17 1 62 -22 62 -16 0 -20 -7 -20
-30z"/>
<path d="M6013 2429 c-40 -33 -73 -66 -73 -74 0 -30 32 -21 92 27 35 27 71 54
81 59 9 5 17 19 17 29 0 36 -42 21 -117 -41z"/>
<path d="M5492 2228 c-28 -40 -52 -80 -52 -89 0 -8 25 -37 55 -63 30 -26 55
-51 55 -55 0 -5 -19 -12 -42 -15 -54 -8 -199 -72 -264 -116 -247 -169 -390
-466 -370 -771 12 -196 90 -369 226 -507 114 -115 278 -204 433 -236 101 -21
296 -21 390 0 82 19 177 59 243 104 25 16 49 30 55 30 5 0 44 -17 87 -38 118
-59 157 -67 332 -67 141 1 162 3 235 28 246 82 466 316 530 562 93 359 -106
760 -457 919 -127 57 -188 70 -328 69 -105 0 -139 -5 -215 -27 -49 -15 -109
-38 -132 -52 -23 -13 -47 -24 -53 -24 -6 0 -41 17 -79 39 -93 52 -185 88 -249
97 l-54 7 53 53 c61 61 61 59 -15 162 l-46 62 -143 0 -142 0 -53 -72z m238
-13 c-19 -19 -39 -35 -44 -34 -6 0 -24 16 -39 35 l-29 34 73 0 73 0 -34 -35z
m-129 -17 l28 -33 -29 -3 c-17 -2 -43 -2 -60 0 l-29 3 20 33 c12 17 26 32 31
32 6 0 23 -15 39 -32z m247 2 c12 -16 22 -32 22 -35 0 -3 -28 -5 -62 -5 l-62
0 34 35 c19 19 37 35 40 35 3 0 16 -13 28 -30z m-230 -120 c-12 -16 -25 -30
-28 -30 -3 0 -19 14 -35 30 l-29 30 57 0 58 0 -23 -30z m227 20 c-3 -5 -19
-18 -35 -30 l-28 -20 -22 30 -21 30 56 0 c33 0 54 -4 50 -10z m-132 -34 c19
-29 14 -36 -30 -36 -38 0 -39 3 -15 35 21 31 26 31 45 1z m212 -105 c186 -55
343 -170 453 -332 77 -114 132 -296 132 -439 0 -145 -52 -315 -132 -433 -44
-65 -59 -74 -96 -61 -47 17 -47 34 1 105 24 37 59 106 77 155 29 79 34 104 38
214 5 139 -8 206 -57 314 -78 170 -257 319 -446 372 -93 25 -258 30 -349 10
-200 -45 -363 -181 -456 -381 -51 -108 -64 -171 -64 -295 1 -123 19 -201 69
-302 73 -145 167 -241 300 -308 115 -58 188 -74 325 -74 127 -1 239 24 317 70
52 30 60 30 102 -4 l33 -28 -51 -33 c-64 -41 -177 -85 -258 -101 -38 -8 -109
-11 -180 -8 -213 8 -380 84 -538 242 -159 160 -225 318 -225 535 0 64 7 148
15 186 17 82 87 231 143 307 51 70 147 157 219 201 64 39 208 91 294 106 83
15 253 6 334 -18z m854 -41 c69 -13 187 -63 261 -111 135 -87 245 -231 300
-395 31 -91 34 -109 34 -224 1 -135 -17 -217 -71 -325 -126 -251 -399 -415
-690 -415 -121 0 -209 21 -322 76 -80 39 -109 60 -181 133 -74 74 -94 101
-138 191 -28 58 -59 134 -69 170 -23 87 -23 262 0 350 23 89 98 235 150 294
l42 47 34 -28 34 -29 -42 -54 c-156 -206 -183 -467 -71 -695 256 -524 1003
-470 1197 87 38 108 43 264 13 375 -28 106 -79 192 -161 273 -79 79 -150 122
-266 163 -79 27 -101 31 -208 31 -121 1 -175 -8 -261 -45 l-42 -17 -31 32
c-38 39 -36 42 60 80 62 24 120 39 194 50 41 6 171 -2 234 -14z m-890 -109
c83 -29 151 -61 151 -72 0 -5 -18 -32 -40 -61 -52 -67 -114 -194 -137 -278
-13 -49 -18 -101 -18 -210 0 -140 2 -148 36 -247 38 -107 82 -189 137 -253 17
-21 32 -41 32 -44 0 -11 -121 -66 -177 -81 -74 -19 -232 -19 -308 0 -33 8 -98
34 -145 57 -117 57 -242 180 -293 288 -49 105 -61 167 -55 296 6 126 29 209
84 301 100 168 237 275 409 320 76 19 245 11 324 -16z m845 -27 c110 -17 229
-80 316 -166 120 -118 182 -264 183 -433 1 -169 -49 -291 -169 -411 -125 -127
-296 -191 -479 -181 -73 4 -225 38 -225 51 0 1 24 40 54 85 94 142 136 287
136 466 0 165 -56 340 -154 484 -42 62 -42 62 44 88 101 30 183 35 294 17z
m-493 -216 c142 -195 153 -474 27 -696 -23 -40 -49 -79 -59 -88 -16 -14 -20
-11 -57 38 -140 188 -163 423 -61 633 32 68 94 155 109 155 5 0 24 -19 41 -42z"/>
<path d="M664 2271 c-56 -34 -114 -187 -133 -350 l-12 -94 -73 -72 c-41 -39
-84 -91 -96 -114 -12 -24 -24 -40 -28 -36 -4 3 -12 36 -18 73 -20 116 -81 212
-135 212 -29 0 -77 -27 -89 -49 -39 -73 37 -256 174 -419 27 -33 36 -53 36
-81 0 -55 25 -139 69 -235 22 -47 38 -86 35 -86 -2 0 -32 22 -67 49 -130 102
-217 126 -270 77 -81 -75 -12 -179 155 -234 36 -11 117 -27 179 -33 l114 -13
67 -60 c37 -34 92 -75 123 -92 l56 -31 -93 -5 c-99 -5 -145 -21 -172 -60 -30
-42 -15 -107 34 -145 21 -17 102 -16 180 2 36 9 117 41 180 72 l115 56 207 1
c114 1 204 -2 200 -5 -4 -3 -35 -27 -69 -52 -34 -26 -77 -66 -97 -89 -30 -35
-36 -49 -36 -87 0 -51 4 -60 40 -84 81 -55 184 26 325 258 29 48 55 89 58 91
5 6 346 94 361 94 4 0 -10 -18 -32 -41 -112 -111 -176 -275 -128 -328 10 -11
33 -22 52 -25 100 -19 169 87 257 399 l14 50 164 62 c90 35 168 63 172 63 5 0
-10 -21 -32 -46 -58 -66 -111 -176 -111 -230 0 -62 24 -84 91 -84 44 0 55 4
81 32 50 53 101 170 138 314 13 49 27 93 31 98 12 14 380 164 469 191 22 7 20
4 -10 -20 -19 -16 -63 -56 -98 -89 -103 -99 -126 -166 -76 -225 20 -24 34 -31
62 -31 79 0 153 81 253 275 34 66 67 123 73 127 14 10 430 8 471 -1 l30 -7
-35 -8 c-19 -4 -67 -14 -106 -22 -133 -28 -206 -100 -172 -171 19 -42 78 -67
135 -58 54 8 203 83 308 155 l74 52 93 -45 c163 -79 358 -222 541 -397 89 -85
127 -108 127 -76 0 33 -301 293 -458 395 -66 43 -82 58 -82 78 0 80 -89 297
-150 366 -38 43 -78 67 -113 67 -36 0 -75 -36 -83 -76 -10 -56 18 -112 102
-203 42 -44 71 -81 65 -81 -6 0 -32 8 -58 19 -73 28 -168 49 -277 61 l-99 11
-71 73 c-167 169 -343 239 -406 159 -48 -61 -12 -130 95 -179 41 -19 88 -37
105 -41 48 -9 45 -23 -5 -23 -66 0 -181 -26 -322 -71 l-123 -40 -42 29 c-91
62 -255 128 -347 139 -116 13 -183 -87 -108 -162 42 -42 84 -53 227 -62 l115
-6 -45 -20 c-25 -11 -126 -53 -224 -93 l-179 -73 -41 28 c-115 79 -304 147
-383 138 -37 -4 -54 -12 -75 -36 -39 -43 -37 -84 5 -125 37 -38 87 -52 222
-62 82 -6 87 -7 64 -19 -85 -45 -562 -162 -734 -181 -58 -6 -61 -5 -75 21 -31
58 -198 192 -293 235 -77 36 -170 18 -183 -35 -16 -66 37 -132 134 -168 37
-14 92 -35 122 -46 l55 -20 -70 5 c-143 12 -311 62 -401 120 l-20 14 24 72
c35 102 43 309 16 382 -35 90 -94 108 -155 46 -26 -26 -29 -35 -29 -99 0 -77
18 -175 50 -265 11 -33 18 -61 16 -63 -8 -8 -109 113 -147 177 -67 114 -92
197 -97 331 -4 101 -1 126 18 183 12 36 26 66 31 66 5 0 42 -9 82 -21 48 -14
115 -22 202 -26 120 -5 134 -4 172 16 47 24 63 46 63 89 0 38 -53 87 -105 96
-46 9 -161 -8 -262 -39 -42 -13 -79 -23 -80 -21 -8 7 69 66 129 100 150 83
401 120 561 81 111 -27 108 -22 81 -103 -26 -75 -47 -257 -37 -318 8 -52 38
-111 64 -124 11 -6 34 -12 51 -12 42 -1 85 49 94 108 7 49 -14 166 -52 286
-14 44 -23 82 -20 86 9 9 77 -49 123 -106 55 -67 88 -170 80 -248 -11 -107
-83 -218 -169 -261 l-43 -22 -120 35 c-133 39 -258 66 -277 60 -7 -3 -25 -7
-40 -10 -14 -3 -40 -18 -57 -32 -41 -34 -41 -72 -1 -118 44 -50 84 -60 210
-52 162 10 307 57 406 132 24 19 46 34 47 34 2 0 -3 -37 -10 -83 -24 -143 -2
-261 54 -286 84 -39 153 28 153 150 0 55 -34 174 -78 276 -36 83 -40 98 -35
152 3 33 0 88 -6 122 -7 33 -11 63 -8 65 2 2 30 -17 63 -42 69 -55 147 -94
187 -94 35 0 83 24 97 49 51 96 -84 204 -296 236 -54 8 -112 15 -128 15 -16 0
-44 13 -66 30 -53 42 -174 98 -243 111 l-58 12 113 44 c133 52 200 92 228 138
41 67 12 140 -62 152 -78 12 -225 -96 -333 -245 l-50 -69 -96 -6 c-52 -4 -131
-16 -174 -27 -43 -11 -80 -19 -81 -17 -2 2 19 31 47 65 107 132 138 241 85
291 -34 32 -93 37 -132 12z m104 -69 c4 -65 -17 -106 -115 -227 -59 -73 -68
-81 -71 -61 -4 33 33 186 58 238 25 53 38 69 70 91 41 28 55 19 58 -41z m660
2 c23 -40 -15 -92 -98 -134 -70 -35 -209 -85 -216 -77 -9 8 76 105 135 155 80
68 159 92 179 56z m-1222 -381 c31 -34 50 -98 64 -222 16 -138 13 -146 -32
-85 -61 84 -118 203 -118 249 0 44 22 85 46 85 8 0 26 -12 40 -27z m1130 -212
c26 -103 29 -138 14 -193 -13 -44 -23 -52 -56 -44 -43 11 -57 64 -49 181 6 94
18 171 31 205 9 21 31 -34 60 -149z m330 89 c168 -42 227 -88 190 -145 -34
-52 -108 -25 -255 95 -115 93 -112 95 65 50z m-838 0 c17 -11 32 -27 32 -35 0
-25 -36 -53 -77 -61 -45 -9 -256 10 -298 26 -27 10 -28 12 -12 22 31 17 240
67 282 68 23 0 54 -9 73 -20z m2563 -240 c72 -43 189 -136 189 -151 0 -15 -29
-11 -145 22 -125 36 -170 56 -205 93 -27 30 -22 51 21 74 32 16 61 8 140 -38z
m688 12 c59 -56 173 -312 140 -312 -16 0 -193 180 -218 221 -23 37 -28 98 -9
117 21 21 46 13 87 -26z m-1417 -218 c95 -34 188 -81 188 -95 0 -8 -46 -10
-152 -7 -164 4 -216 17 -238 57 -9 18 -7 25 14 46 34 33 92 33 188 -1z m-2011
-3 c23 -19 24 -25 24 -148 -1 -119 -16 -227 -35 -238 -13 -8 -74 236 -73 297
0 59 21 108 47 108 8 0 24 -9 37 -19z m937 -48 c51 -164 60 -220 43 -266 -12
-31 -57 -41 -88 -21 -21 13 -23 23 -23 91 0 80 28 263 40 263 4 0 17 -30 28
-67z m-493 -9 c93 -23 155 -45 155 -54 0 -27 -315 -52 -360 -28 -35 19 -40 70
-8 93 27 19 110 15 213 -11z m2145 -74 c-91 -180 -175 -273 -231 -255 -26 8
-25 68 1 110 31 50 222 205 253 205 4 0 -6 -27 -23 -60z m720 40 c0 -16 -200
-129 -258 -146 -62 -18 -122 -6 -122 25 0 32 39 69 88 85 113 36 292 58 292
36z m-3720 -83 c25 -17 77 -55 115 -85 39 -31 72 -57 74 -59 27 -21 -130 5
-223 37 -81 28 -116 55 -116 91 0 16 9 38 20 49 17 17 24 18 52 8 18 -6 53
-25 78 -41z m1825 -72 c72 -25 185 -83 185 -96 0 -8 -46 -10 -152 -7 -128 3
-160 7 -192 23 -57 29 -66 48 -37 79 36 38 85 38 196 1z m539 -92 c-14 -59
-67 -200 -92 -246 -37 -69 -100 -98 -122 -58 -23 45 -3 97 76 196 51 63 123
134 137 135 4 0 4 -12 1 -27z m-1548 -69 c112 -67 225 -164 191 -164 -28 0
-247 59 -280 76 -47 24 -77 55 -77 79 0 57 78 62 166 9z m1024 -116 c-1 -11
-35 -115 -62 -185 -38 -101 -87 -163 -128 -163 -35 0 -42 10 -42 57 0 43 64
142 152 231 49 51 81 74 80 60z m-1205 -106 l39 -7 -79 -36 c-150 -68 -265
-89 -291 -54 -27 37 -15 77 26 94 29 11 246 13 305 3z m665 -20 c0 -17 -123
-189 -168 -234 -52 -54 -90 -63 -116 -27 -19 27 -7 61 37 107 37 39 134 110
192 141 43 23 55 26 55 13z"/>
<path d="M11493 2278 c-30 -15 -47 -60 -38 -105 10 -57 48 -122 119 -209 35
-43 63 -81 61 -83 -2 -2 -22 4 -43 12 -57 23 -195 47 -267 47 l-62 0 -56 73
c-63 82 -163 181 -222 220 -49 32 -111 43 -145 25 -13 -7 -31 -30 -38 -50 -13
-33 -12 -41 4 -75 25 -51 87 -90 234 -149 l122 -48 -73 -18 c-87 -22 -180 -64
-231 -105 -29 -24 -52 -32 -100 -37 -212 -24 -383 -99 -403 -177 -15 -59 39
-115 110 -113 51 1 103 26 183 86 35 27 65 48 67 48 2 0 -1 -15 -6 -32 -6 -18
-9 -73 -8 -123 2 -73 -2 -99 -19 -136 -44 -101 -84 -244 -89 -324 -5 -96 13
-136 71 -155 31 -10 42 -9 73 7 21 10 43 29 50 43 17 34 16 159 -2 254 -8 44
-13 81 -11 84 3 2 26 -14 51 -36 58 -51 150 -97 245 -121 100 -25 253 -36 307
-22 53 15 93 60 93 107 0 30 -6 38 -47 65 -45 29 -53 30 -123 26 -48 -3 -128
-20 -220 -47 l-145 -42 -43 23 c-49 25 -92 71 -124 132 -20 36 -23 57 -23 143
0 99 1 104 40 180 30 58 53 89 94 122 29 24 55 41 57 39 3 -2 -12 -67 -32
-143 -20 -77 -37 -162 -37 -189 0 -106 69 -169 146 -134 31 14 54 54 62 109
10 67 -13 255 -40 332 l-23 68 87 27 c76 24 101 27 216 27 118 -1 139 -3 226
-32 94 -31 197 -88 252 -140 31 -29 36 -47 10 -37 -48 18 -192 56 -247 65 -77
12 -129 0 -168 -37 -24 -23 -28 -34 -24 -58 8 -38 50 -82 95 -96 46 -16 246
-5 326 17 110 30 100 32 126 -33 20 -50 24 -75 23 -178 0 -110 -3 -127 -31
-202 -17 -45 -51 -112 -76 -150 -49 -76 -122 -161 -131 -152 -3 3 3 34 14 70
57 184 58 275 4 339 -45 53 -120 35 -150 -36 -29 -68 -10 -312 30 -409 l17
-40 -28 -23 c-43 -35 -144 -81 -230 -103 -70 -19 -265 -39 -253 -27 3 3 55 20
117 38 61 17 125 41 142 51 40 24 71 75 71 116 0 59 -83 97 -160 74 -83 -25
-263 -165 -326 -253 l-19 -27 -144 25 c-252 43 -468 97 -631 158 l-85 31 145
6 c165 6 206 19 241 76 21 33 21 36 5 70 -12 24 -30 40 -62 55 -42 18 -52 19
-107 8 -116 -23 -203 -61 -343 -149 -20 -14 -91 12 -432 157 l-64 27 154 6
c163 6 194 13 233 55 42 46 32 99 -25 138 -68 45 -287 -13 -439 -117 l-43 -30
-117 37 c-141 43 -226 63 -317 74 l-69 8 75 23 c41 13 91 31 111 42 156 79 92
243 -75 195 -67 -20 -211 -121 -280 -197 l-51 -57 -100 -11 c-105 -12 -172
-27 -269 -61 -33 -11 -61 -20 -64 -20 -2 0 26 32 61 71 82 88 112 145 104 202
-8 55 -35 77 -98 77 -42 0 -53 -5 -84 -35 -48 -48 -120 -202 -149 -316 l-24
-94 -74 -50 c-121 -82 -244 -181 -381 -312 -65 -61 -77 -76 -67 -88 7 -8 17
-15 22 -15 5 0 50 39 101 88 180 171 337 286 521 383 95 50 122 60 135 51 54
-37 245 -150 296 -174 92 -43 155 -35 189 23 49 82 -43 161 -223 193 -45 7
-85 16 -87 19 -21 21 341 40 457 24 l57 -8 47 -92 c74 -145 161 -271 205 -296
48 -27 90 -27 124 0 38 30 37 101 -3 156 -32 45 -128 132 -192 175 -23 15 -36
28 -29 28 44 0 303 -90 451 -157 61 -28 67 -34 73 -68 10 -54 79 -252 106
-305 45 -88 80 -119 137 -120 45 0 62 9 79 43 26 49 11 105 -53 194 -30 43
-74 98 -96 121 l-42 44 40 -18 c22 -9 110 -44 196 -77 l156 -60 37 -125 c49
-167 105 -284 150 -311 49 -31 109 -28 135 5 53 67 6 174 -148 338 -40 42 -43
48 -21 42 14 -4 103 -27 198 -51 95 -24 175 -45 176 -47 2 -1 9 -14 16 -28 36
-69 166 -253 204 -288 56 -52 117 -72 155 -51 14 8 32 27 39 42 31 64 -30 152
-176 251 -40 27 -71 50 -69 51 1 2 27 -1 57 -6 30 -4 135 -8 233 -8 169 -1
179 -2 215 -25 124 -78 253 -126 339 -126 109 0 155 45 128 125 -8 21 -20 42
-27 47 -37 26 -84 38 -151 38 -41 0 -77 3 -80 7 -4 3 16 19 44 35 67 36 153
103 173 133 12 18 28 25 63 29 206 25 330 64 390 121 56 54 58 92 9 141 -26
26 -42 34 -69 34 -42 0 -147 -52 -213 -106 l-46 -38 17 40 c40 92 66 179 72
241 6 64 9 71 66 138 107 128 157 229 157 321 0 70 -36 115 -92 117 -76 2
-120 -63 -141 -208 l-13 -89 -48 73 c-27 40 -72 91 -100 113 l-51 40 -16 110
c-27 174 -74 300 -129 339 -32 23 -89 31 -117 17z m118 -75 c32 -51 60 -133
79 -230 21 -105 12 -107 -67 -10 -123 149 -151 219 -108 267 31 34 62 26 96
-27z m-635 -11 c82 -53 228 -212 195 -212 -16 0 -183 61 -223 81 -98 50 -136
118 -86 153 33 23 49 20 114 -22z m1160 -375 c27 -23 27 -25 15 -73 -7 -27
-26 -76 -43 -109 -38 -76 -110 -173 -116 -156 -7 20 18 197 35 255 17 58 48
106 68 106 8 0 26 -11 41 -23z m-1113 -264 c2 -125 1 -134 -20 -155 -19 -18
-27 -20 -50 -12 -40 14 -49 50 -36 142 11 72 51 215 69 244 16 26 36 -88 37
-219z m-274 170 c-2 -26 -238 -193 -271 -193 -19 0 -67 46 -68 66 -1 33 95 83
220 114 82 20 120 24 119 13z m938 -33 c65 -17 122 -35 126 -39 19 -19 -146
-51 -263 -50 -90 0 -134 17 -138 51 -9 75 82 87 275 38z m-2657 -216 l22 -35
-27 -29 c-16 -17 -58 -40 -99 -55 -91 -32 -228 -67 -235 -59 -17 17 192 173
267 200 50 18 48 19 72 -22z m-753 14 c20 -26 21 -46 2 -87 -22 -50 -219 -253
-226 -233 -6 16 29 116 69 195 53 107 125 164 155 125z m1536 -226 c13 -14 14
-22 4 -42 -19 -38 -68 -60 -163 -71 -90 -11 -234 -4 -234 11 0 11 116 67 200
96 82 29 170 31 193 6z m932 -121 c22 -145 11 -229 -30 -245 -23 -8 -71 19
-78 44 -16 61 58 351 82 324 5 -5 16 -60 26 -123z m946 108 c19 -19 21 -30 17
-103 -5 -86 -63 -296 -77 -280 -25 28 -50 246 -37 317 7 40 41 87 62 87 8 0
24 -10 35 -21z m-296 -43 c19 -8 35 -22 35 -30 0 -30 -45 -68 -90 -76 -75 -15
-344 20 -323 41 13 13 270 78 311 79 18 0 48 -7 67 -14z m-2319 -57 c180 -126
253 -230 192 -273 -31 -22 -52 -20 -87 9 -58 49 -207 305 -178 305 8 0 40 -19
73 -41z m-516 -9 c92 -26 120 -43 120 -74 0 -29 -36 -76 -58 -76 -47 1 -322
148 -322 172 0 17 174 2 260 -22z m3624 -39 c29 -32 16 -62 -43 -97 -73 -44
-299 -103 -290 -76 6 17 179 150 224 172 50 25 87 25 109 1z m-1794 -97 c25
-65 -2 -88 -121 -102 -105 -12 -249 -8 -249 8 0 12 136 78 210 101 30 10 76
18 103 18 42 1 49 -2 57 -25z m-685 -80 c47 -38 142 -157 169 -211 19 -38 21
-84 4 -101 -16 -16 -59 -15 -84 3 -21 14 -63 94 -91 170 -22 63 -52 175 -47
175 3 0 25 -16 49 -36z m1663 -40 c29 -8 29 -42 0 -79 -28 -36 -125 -80 -231
-105 -120 -29 -128 -28 -86 16 58 60 187 146 249 165 33 10 41 10 68 3z
m-1104 -197 c160 -160 210 -297 107 -297 -57 0 -87 45 -147 224 -50 148 -45
158 40 73z m1466 -87 c36 -47 22 -84 -36 -95 -40 -8 -173 28 -269 73 l-79 37
34 7 c19 3 102 5 183 5 145 -2 149 -2 167 -27z m-905 -27 c104 -60 205 -160
205 -201 0 -39 -31 -66 -66 -58 -41 11 -124 96 -181 188 -86 138 -83 144 42
71z"/>
<path d="M6253 2210 c-26 -11 -29 -23 -9 -39 17 -14 66 2 66 23 0 11 -24 29
-33 25 -1 0 -12 -4 -24 -9z"/>
<path d="M5105 2190 c-11 -17 8 -31 55 -40 32 -6 43 -4 47 7 8 21 -6 31 -53
39 -28 4 -44 2 -49 -6z"/>
<path d="M6080 2166 c-28 -7 -46 -18 -48 -29 -5 -26 22 -30 83 -12 43 12 56
20 53 33 -4 21 -30 24 -88 8z"/>
<path d="M5242 2153 c4 -21 56 -39 70 -25 20 20 0 42 -37 42 -29 0 -36 -4 -33
-17z"/>
</g>
</svg>
