<?xml version="1.0" standalone="no"?>
<!DOCTYPE svg PUBLIC "-//W3C//DTD SVG 20010904//EN"
 "http://www.w3.org/TR/2001/REC-SVG-20010904/DTD/svg10.dtd">
<svg version="1.0" xmlns="http://www.w3.org/2000/svg"
 width="818.000000pt" height="824.000000pt" viewBox="0 0 818.000000 824.000000"
 preserveAspectRatio="xMidYMid meet">

<g transform="translate(0.000000,824.000000) scale(0.100000,-0.100000)"
fill="#000000" stroke="none">
<path d="M5653 7920 c-121 -74 -62 -272 77 -256 25 3 56 8 70 11 21 5 36 -5
100 -69 41 -41 76 -78 77 -83 1 -4 -3 -16 -11 -25 -11 -15 -24 -16 -137 -7
-68 5 -172 7 -230 3 -103 -6 -106 -5 -125 18 -34 43 -66 58 -120 58 -43 0 -56
-5 -89 -33 -34 -29 -38 -39 -42 -88 -7 -90 47 -152 132 -152 59 0 110 35 131
89 14 36 21 43 52 48 49 8 196 8 311 -1 l92 -6 22 -46 c28 -56 75 -85 136 -86
44 0 45 -1 72 -55 41 -80 69 -168 85 -267 14 -88 14 -88 -8 -103 -103 -67
-113 -170 -26 -244 39 -34 40 -37 34 -78 -17 -108 -131 -385 -163 -395 -9 -3
-10 22 -6 99 13 243 -47 463 -183 669 -143 216 -329 263 -477 121 -50 -48 -76
-108 -83 -193 -4 -38 -10 -69 -15 -69 -4 0 -58 36 -121 81 -200 143 -424 269
-571 320 -23 8 -39 21 -42 34 -51 235 -94 340 -172 419 -81 82 -245 182 -277
170 -22 -9 -21 -74 4 -185 29 -130 68 -208 142 -286 l63 -66 -60 9 c-33 5
-156 9 -273 9 l-213 0 -74 81 c-147 161 -259 214 -471 222 -125 4 -133 3 -143
-16 -9 -17 -4 -29 33 -79 64 -86 187 -200 243 -225 26 -12 68 -26 93 -33 l45
-12 -35 -10 c-19 -6 -69 -21 -110 -33 -86 -25 -168 -54 -328 -116 -62 -24
-117 -44 -123 -44 -7 0 -53 42 -103 93 -134 137 -234 187 -404 202 -91 8 -182
-2 -189 -22 -10 -25 19 -65 121 -171 108 -112 157 -141 264 -162 34 -7 65 -17
68 -21 3 -5 3 -9 1 -9 -2 0 -39 -9 -83 -21 -165 -42 -386 -74 -568 -81 l-79
-3 -27 76 c-56 157 -97 223 -189 302 -68 57 -221 135 -285 143 -46 7 -46 7
-46 -23 0 -43 35 -144 85 -249 49 -102 107 -162 196 -205 92 -45 67 -47 -171
-13 -110 16 -377 80 -396 95 -7 6 -8 25 -3 56 22 134 -5 322 -62 438 -36 74
-160 215 -189 215 -10 0 -22 -6 -28 -13 -17 -20 -35 -198 -30 -296 5 -105 35
-177 118 -279 28 -35 49 -66 46 -69 -3 -3 -61 16 -128 42 -105 41 -129 55
-163 93 -216 241 -277 277 -489 289 -121 7 -192 -2 -200 -24 -12 -30 105 -156
219 -238 106 -76 149 -87 441 -108 28 -2 61 -11 73 -19 21 -15 19 -16 -56 -33
-99 -22 -176 -58 -230 -108 -85 -78 -202 -259 -189 -293 14 -36 218 -3 342 56
93 45 174 120 249 230 26 39 50 72 54 74 3 2 65 -16 138 -39 72 -24 157 -48
187 -55 31 -6 58 -15 61 -20 3 -5 -14 -14 -37 -20 -59 -14 -145 -56 -190 -91
-43 -35 -131 -150 -178 -232 -50 -89 -27 -101 137 -73 203 36 318 115 449 307
l49 71 40 -6 c109 -16 364 -28 478 -23 70 4 127 5 127 3 0 -1 -31 -23 -68 -49
-84 -57 -123 -105 -169 -205 -40 -87 -78 -225 -69 -249 10 -24 64 -11 170 41
189 93 248 166 353 441 18 47 22 50 64 58 199 38 337 76 548 152 57 20 105 34
108 31 3 -3 -10 -23 -30 -45 -78 -86 -102 -169 -102 -351 0 -119 2 -135 17
-138 26 -5 127 69 197 144 112 122 149 209 158 371 3 57 11 107 17 112 6 5 49
20 96 34 178 54 332 84 464 92 l91 6 -70 -37 c-104 -55 -170 -128 -238 -264
-55 -110 -70 -169 -44 -171 100 -9 319 84 407 172 46 46 124 167 155 242 9 21
23 41 32 44 41 16 334 -61 439 -115 l37 -19 -84 -6 c-152 -10 -229 -48 -381
-188 -110 -99 -106 -120 30 -139 189 -28 385 42 566 201 l48 42 31 -18 c18
-10 77 -47 132 -84 l100 -66 -70 -6 c-79 -6 -116 -22 -162 -71 -99 -103 -97
-241 7 -453 97 -199 232 -304 515 -399 107 -35 107 -36 0 -56 -76 -15 -190
-53 -278 -92 -65 -30 -68 -30 -87 -13 -11 10 -41 20 -67 22 -61 5 -108 -19
-138 -73 l-22 -39 -99 -12 c-130 -17 -229 -37 -338 -70 l-89 -27 -36 21 c-74
42 -130 37 -185 -16 l-31 -30 -65 14 c-36 8 -96 14 -135 15 -66 0 -71 2 -86
28 -35 62 -134 78 -197 33 -38 -26 -64 -90 -55 -133 26 -139 207 -162 264 -33
l20 45 72 0 c82 -1 158 -15 169 -33 19 -30 7 -60 -43 -105 -46 -42 -55 -45
-104 -46 -146 -2 -196 -181 -72 -256 64 -39 159 -14 192 50 19 37 19 103 0
141 -15 29 -15 30 24 72 l40 42 29 -17 c17 -10 50 -18 77 -18 84 0 131 42 144
128 l6 46 82 26 c132 43 392 87 421 71 10 -5 -7 -24 -60 -67 -118 -96 -226
-203 -290 -290 -59 -80 -61 -82 -110 -86 -102 -10 -160 -120 -108 -205 53 -87
158 -96 230 -18 21 22 25 37 25 85 0 48 -4 63 -24 84 l-24 25 28 43 c48 72
125 157 227 248 126 112 137 118 181 96 99 -46 207 25 207 136 0 34 4 40 42
59 101 51 299 109 371 109 l32 -1 -22 -17 c-12 -9 -55 -38 -96 -65 -212 -136
-379 -335 -473 -564 -21 -51 -29 -89 -32 -153 -4 -100 14 -153 74 -220 56 -61
105 -83 188 -82 60 0 79 5 149 40 l79 39 14 -33 c8 -18 14 -38 14 -44 0 -6 12
-34 26 -63 48 -95 119 -151 207 -163 53 -7 146 17 199 51 31 21 37 22 42 9 19
-48 -5 -302 -38 -416 -62 -209 -539 -364 -687 -222 -35 34 -35 38 -4 75 70 84
19 214 -88 226 -49 6 -88 -10 -127 -52 -21 -22 -25 -37 -25 -85 0 -54 3 -62
34 -94 22 -22 48 -38 70 -42 23 -4 50 -20 74 -45 71 -73 104 -84 252 -84 148
0 214 16 344 86 l73 39 -19 -32 c-64 -108 -65 -109 -110 -102 -56 8 -108 -11
-138 -50 -21 -27 -25 -44 -25 -97 l0 -64 -52 -31 c-66 -38 -137 -71 -207 -95
l-55 -19 -26 25 c-60 58 -153 53 -209 -10 -25 -29 -31 -44 -31 -83 0 -88 56
-142 146 -142 40 0 51 5 85 38 27 28 40 51 45 80 6 40 8 41 72 62 70 23 182
77 242 116 35 23 38 24 69 8 30 -15 33 -20 28 -50 -3 -19 -19 -60 -34 -92 -28
-55 -30 -57 -78 -64 -59 -8 -94 -32 -118 -81 -34 -68 -1 -154 69 -183 130 -55
244 81 172 205 l-22 38 26 59 c15 33 33 80 39 107 10 36 22 53 50 72 25 16 43
39 54 69 16 43 16 48 0 93 l-17 48 37 55 c41 61 100 173 122 235 46 125 55
178 59 380 4 167 8 207 24 240 75 162 101 445 60 677 -10 62 -22 123 -26 136
-3 12 -2 22 4 22 23 0 302 -397 302 -430 0 -6 -27 -42 -59 -81 -65 -77 -130
-194 -155 -278 -16 -55 -21 -253 -7 -315 10 -45 32 -53 71 -25 46 34 176 195
205 254 26 52 50 185 40 216 -5 13 -2 17 7 14 27 -11 113 -283 124 -395 l6
-55 -86 -43 c-213 -108 -315 -235 -360 -452 -16 -79 -13 -100 15 -100 59 0
261 111 331 182 25 26 61 76 78 110 l32 63 -6 -90 c-11 -150 -56 -373 -103
-507 -17 -48 -17 -48 -62 -48 -79 0 -234 -30 -289 -55 -123 -57 -309 -247
-300 -308 3 -21 8 -22 93 -25 175 -6 290 25 393 107 30 24 56 41 58 38 2 -2
-2 -17 -11 -33 -8 -16 -15 -34 -15 -41 0 -6 -9 -33 -21 -60 -38 -89 -125 -398
-154 -550 -6 -29 -12 -33 -88 -58 -206 -68 -310 -158 -403 -351 -58 -120 -62
-135 -39 -154 23 -19 136 12 274 76 75 35 118 70 168 138 l43 58 0 -194 c0
-110 6 -245 15 -313 8 -65 14 -119 12 -120 -76 -48 -171 -122 -216 -170 -48
-52 -65 -80 -95 -157 -39 -102 -71 -256 -62 -294 9 -34 36 -31 109 12 168 99
248 187 292 324 15 44 20 51 26 35 11 -29 109 -342 109 -348 0 -3 -37 -31 -82
-63 -151 -105 -211 -185 -257 -340 -24 -81 -44 -216 -35 -239 9 -22 29 -19 94
16 87 46 214 152 248 207 33 54 66 139 76 197 14 79 16 80 40 28 18 -38 24
-74 29 -173 6 -126 22 -202 59 -275 34 -66 117 -163 190 -223 97 -77 102 -73
106 89 4 149 -13 233 -66 323 -37 63 -132 163 -207 217 -45 32 -57 54 -116
213 -16 43 -28 81 -25 83 2 3 30 -16 61 -41 134 -109 236 -133 456 -105 98 12
129 23 129 45 0 26 -130 147 -196 182 -120 62 -173 74 -346 76 -87 2 -160 5
-163 8 -20 20 -99 395 -110 518 l-6 75 39 -60 c74 -113 141 -159 325 -224 98
-34 132 -38 140 -16 9 22 -21 112 -66 198 -76 147 -172 227 -357 298 l-95 36
3 79 c5 178 34 374 83 570 l22 88 22 -80 c26 -97 50 -144 110 -211 67 -76 193
-175 219 -171 20 3 21 8 21 128 -1 232 -62 365 -228 500 -31 25 -58 50 -61 57
-3 7 27 95 65 195 39 101 84 224 100 273 16 50 32 97 35 105 3 9 13 -8 24 -44
10 -32 36 -84 57 -114 38 -56 185 -192 233 -217 48 -25 53 -11 48 146 -4 116
-10 156 -28 208 -32 90 -93 174 -186 256 l-80 70 4 195 c2 107 0 225 -5 263
-5 37 -8 69 -5 71 2 3 17 -10 33 -28 69 -79 203 -141 359 -166 91 -14 120 -13
127 6 15 39 -113 234 -201 307 -81 67 -174 105 -326 131 l-65 11 -35 85 c-85
206 -203 404 -364 615 -81 105 -87 115 -56 93 14 -10 70 -45 125 -77 55 -33
136 -89 180 -125 133 -109 226 -161 387 -215 78 -27 83 -30 91 -64 5 -19 24
-49 42 -67 29 -28 44 -34 92 -38 32 -2 65 -10 73 -17 29 -25 138 -83 189 -100
75 -25 215 -45 312 -45 78 0 87 -2 109 -25 85 -90 240 -30 240 93 0 170 -245
192 -276 26 l-6 -34 -103 0 c-154 0 -331 50 -413 116 l-23 19 23 42 23 41 90
7 c176 13 328 62 436 141 76 55 153 172 192 291 8 24 19 39 32 41 31 6 83 49
101 84 11 20 14 45 11 70 -19 142 -199 176 -266 50 -30 -55 -4 -147 49 -180
19 -11 21 -19 15 -50 -10 -55 -70 -164 -118 -213 -87 -91 -214 -149 -372 -169
-91 -12 -185 -12 -185 -1 0 22 -54 72 -90 82 -53 16 -103 4 -140 -33 -27 -27
-35 -30 -71 -24 -55 9 -172 57 -247 101 -98 59 -94 67 18 38 91 -23 315 -23
390 0 105 33 153 78 185 175 39 122 1 229 -112 312 -34 25 -62 47 -62 50 -1 3
30 37 67 75 84 87 106 131 106 210 -1 124 -89 222 -247 275 -59 20 -80 22
-180 17 -171 -8 -302 -62 -544 -224 -68 -46 -126 -83 -128 -83 -2 0 18 42 45
93 65 123 106 239 125 350 5 31 13 41 46 57 59 31 81 72 76 142 -5 58 -5 58
42 106 26 26 60 65 75 85 25 33 33 37 58 32 68 -15 158 53 158 120 0 34 3 36
93 81 174 87 299 172 382 260 29 31 50 43 79 48 102 14 155 116 108 206 -26
48 -74 72 -135 67 -105 -9 -161 -125 -103 -210 14 -21 26 -42 26 -47 0 -18
-98 -104 -185 -162 -49 -32 -132 -80 -183 -105 l-93 -46 -21 20 -20 20 21 69
c11 38 25 103 31 144 7 49 16 78 26 85 91 57 119 138 73 212 -26 42 -66 63
-121 63 -77 -1 -128 -50 -135 -129 -5 -56 20 -102 72 -132 30 -18 35 -26 35
-57 0 -46 -37 -201 -52 -219 -6 -7 -28 -13 -49 -13 -51 0 -104 -46 -120 -103
-9 -36 -8 -49 10 -91 l21 -49 -24 -31 c-13 -17 -43 -53 -67 -79 l-44 -48 -36
15 c-35 15 -36 17 -43 79 -9 95 -42 211 -86 304 l-38 82 19 38 c23 45 24 81 5
128 -21 49 -68 75 -138 75 l-58 0 -86 84 c-77 74 -85 85 -75 104 17 31 13 63
-12 107 -39 70 -128 95 -194 55z m107 -45 c53 -27 64 -77 29 -126 -17 -24 -27
-29 -64 -29 -35 0 -48 5 -64 26 -36 46 -24 101 27 128 34 19 37 19 72 1z
m1051 -157 c29 -33 25 -92 -7 -117 -52 -41 -109 -23 -133 42 -30 78 84 140
140 75z m-2543 -37 c72 -49 170 -153 199 -212 20 -39 35 -92 57 -191 4 -17 2
-28 -4 -28 -33 0 -167 95 -214 151 -42 49 -65 102 -91 207 -14 53 -25 100 -25
104 0 16 23 7 78 -31z m3081 14 c31 -15 54 -65 44 -93 -23 -64 -104 -85 -142
-36 -31 40 -28 87 10 118 35 30 49 32 88 11z m-6388 -192 c76 -100 119 -241
119 -393 0 -98 -8 -101 -72 -28 -87 98 -120 168 -126 260 -6 101 6 230 21 225
7 -2 33 -31 58 -64z m2434 12 c38 -8 94 -27 125 -42 54 -28 200 -160 200 -182
0 -17 -166 -14 -231 5 -30 9 -75 29 -102 46 -46 29 -177 162 -177 179 0 14
108 10 185 -6z m2017 -22 c19 -18 28 -37 28 -58 0 -40 -45 -85 -84 -85 -35 0
-86 52 -86 87 0 34 51 83 86 83 17 0 39 -11 56 -27z m733 2 c77 -76 -30 -194
-109 -120 -54 50 -19 145 54 145 19 0 40 -9 55 -25z m-5845 -135 c96 -18 158
-54 243 -142 43 -44 75 -84 70 -88 -13 -12 -185 6 -245 25 -29 10 -71 29 -93
43 -44 28 -175 150 -175 164 0 11 136 10 200 -2z m1325 -143 c83 -49 142 -102
180 -161 38 -60 88 -183 80 -196 -6 -10 -51 6 -142 52 -87 44 -149 107 -188
192 -28 61 -65 157 -65 171 0 9 78 -24 135 -58z m927 15 c36 -10 87 -31 114
-47 54 -31 187 -163 178 -176 -8 -14 -121 -10 -197 6 -37 8 -90 26 -118 41
-50 28 -199 174 -199 195 0 16 137 4 222 -19z m1584 -99 c-81 -154 -169 -232
-321 -285 -110 -38 -111 -27 -8 139 42 68 95 118 162 153 41 21 155 59 179 60
23 0 23 -1 -12 -67z m2555 38 c31 -31 36 -59 17 -94 -22 -42 -67 -58 -113 -41
-19 8 -45 55 -45 84 0 31 53 80 85 80 16 0 38 -12 56 -29z m-1003 -122 c107
-53 223 -199 278 -351 44 -120 56 -184 61 -343 6 -194 -4 -271 -32 -267 -11 1
-43 5 -71 8 l-51 6 -13 80 c-15 89 -29 115 -55 105 -13 -6 -16 -14 -11 -35 17
-83 27 -165 19 -171 -4 -4 -24 -17 -44 -29 l-36 -22 -72 35 c-79 38 -101 43
-101 21 0 -20 42 -51 96 -72 47 -18 53 -29 29 -60 -8 -10 -15 -29 -15 -41 0
-13 -6 -23 -13 -23 -45 0 -316 97 -395 142 -191 108 -318 300 -329 499 -6 88
4 125 46 173 63 72 234 75 347 5 53 -32 61 -23 66 83 7 139 51 223 141 267 56
28 83 27 155 -10z m-2394 -37 c-12 -104 -35 -197 -62 -246 -30 -57 -177 -209
-195 -203 -16 5 -11 124 9 210 23 94 91 185 204 270 19 14 38 24 42 21 4 -3 5
-26 2 -52z m1524 -6 c24 -15 -146 -142 -237 -177 -63 -24 -184 -35 -256 -25
l-47 8 33 35 c63 65 154 128 219 151 56 19 80 22 170 19 59 -2 111 -7 118 -11z
m-3988 -42 c0 -4 -20 -35 -45 -69 -91 -128 -192 -195 -344 -229 -87 -19 -91
-19 -91 -5 0 18 111 168 148 200 54 48 173 92 272 102 19 2 41 5 48 5 6 1 12
-1 12 -4z m5534 -175 c30 -35 32 -49 11 -89 -29 -55 -76 -65 -124 -24 -24 20
-31 34 -31 60 0 79 93 114 144 53z m-4934 -2 c0 -19 -113 -157 -157 -190 -21
-16 -65 -42 -99 -58 -63 -29 -211 -62 -219 -49 -7 11 69 117 123 173 66 69
154 111 266 127 77 11 86 11 86 -3z m886 -44 c-4 -16 -27 -69 -51 -118 -31
-66 -58 -104 -97 -141 -55 -52 -161 -117 -212 -130 -33 -8 -33 -7 19 124 55
137 124 207 260 265 79 34 89 34 81 0z m4619 -384 c116 -21 209 -78 245 -150
26 -50 25 -88 -2 -147 -25 -52 -124 -153 -175 -177 -18 -9 -33 -22 -33 -29 0
-8 24 -29 53 -47 127 -82 177 -151 177 -246 -1 -107 -53 -179 -152 -206 -215
-60 -517 1 -771 156 -78 47 -177 119 -177 127 0 6 63 106 74 118 2 1 69 -12
151 -29 146 -30 172 -30 160 3 -4 10 -36 22 -93 33 -48 9 -100 21 -116 26 -16
5 -42 9 -57 9 -34 0 -35 2 -44 70 l-6 55 55 30 c58 31 68 48 38 64 -13 7 -31
3 -66 -15 -50 -25 -76 -26 -76 -1 0 26 321 242 435 292 158 70 257 87 380 64z
m-889 -354 c51 -39 78 -105 71 -177 -14 -154 -176 -241 -303 -162 -131 80
-124 280 11 352 69 36 164 31 221 -13z m1949 -260 c37 -36 34 -86 -6 -119 -35
-30 -35 -30 -78 -15 -37 13 -65 60 -57 95 16 63 96 85 141 39z m-2303 -18 l16
-32 -84 -90 c-83 -90 -97 -117 -59 -123 14 -2 46 24 104 82 l84 85 36 -25 c20
-13 41 -24 48 -24 16 0 16 6 -2 -138 -9 -65 -15 -150 -13 -188 3 -61 5 -69 23
-69 18 0 21 9 28 90 5 50 14 133 20 185 l12 95 43 9 c53 11 55 9 77 -89 60
-273 61 -576 1 -743 -28 -79 -104 -170 -170 -204 -97 -50 -222 -2 -279 107
-22 43 -47 129 -47 163 0 52 -19 55 -85 13 -172 -109 -310 -102 -386 18 -59
92 -33 229 82 432 33 56 132 179 190 235 89 84 311 244 340 244 3 0 12 -15 21
-33z m-614 -49 c28 -27 29 -76 1 -112 -38 -49 -119 -28 -142 36 -10 27 13 77
42 93 31 18 68 11 99 -17z m-1323 -134 c42 -45 25 -109 -34 -134 -24 -9 -35
-9 -60 4 -54 28 -67 83 -30 130 29 37 90 37 124 0z m508 -26 c32 -17 46 -39
47 -75 0 -37 -47 -83 -87 -83 -33 0 -83 51 -83 85 0 32 50 85 80 85 12 0 31
-5 43 -12z m-273 -298 c45 -45 32 -112 -27 -136 -82 -35 -151 69 -88 131 31
31 86 34 115 5z m3138 -73 c52 -48 14 -137 -59 -137 -89 0 -117 121 -36 155
36 15 64 9 95 -18z m-2638 -92 c49 -52 13 -135 -59 -135 -47 0 -81 32 -81 79
0 75 89 111 140 56z m1935 -218 c0 -116 -2 -125 -31 -187 -30 -61 -136 -199
-160 -207 -44 -15 -26 234 25 342 38 80 139 201 155 185 7 -7 11 -54 11 -133z
m1489 72 c30 -36 32 -55 9 -89 -24 -35 -33 -40 -75 -40 -28 0 -42 6 -57 26
-69 88 52 188 123 103z m-1071 -285 c108 -42 177 -106 257 -238 l24 -39 -52 6
c-143 17 -265 78 -338 170 -49 62 -96 141 -88 149 8 9 121 -19 197 -48z m-248
-379 c-25 -97 -70 -178 -128 -232 -54 -48 -220 -143 -232 -132 -11 12 53 168
95 231 23 35 61 79 86 98 58 46 177 111 186 101 5 -4 1 -34 -7 -66z m-1397
-125 c53 -49 16 -140 -57 -140 -72 0 -109 84 -59 137 28 30 85 31 116 3z
m1646 -415 c18 -27 41 -70 50 -95 22 -56 40 -230 26 -244 -7 -7 -41 21 -104
85 -86 86 -96 101 -115 163 -22 72 -38 222 -27 252 6 15 17 7 73 -47 36 -35
80 -86 97 -114z m-1114 20 c55 -28 66 -85 25 -129 -44 -48 -126 -28 -140 34
-9 42 2 68 38 91 38 23 40 23 77 4z m730 -285 c0 -13 -81 -112 -128 -155 -59
-55 -128 -83 -252 -101 -74 -11 -115 -13 -121 -7 -22 22 136 174 227 219 75
37 274 69 274 44z m-1285 -25 c64 -63 -4 -168 -87 -136 -62 23 -73 100 -21
141 35 27 78 26 108 -5z m442 -165 c1 0 10 -14 19 -31 43 -84 -64 -162 -131
-94 -60 59 -2 157 80 134 16 -5 31 -9 32 -9z m871 -324 c113 -119 156 -214
164 -362 3 -61 1 -69 -15 -69 -22 0 -163 139 -187 185 -32 64 -50 146 -50 234
0 47 4 86 9 86 5 0 40 -33 79 -74z m-322 -494 c-29 -82 -71 -149 -130 -207
-50 -50 -77 -67 -153 -98 -84 -34 -133 -45 -133 -32 0 3 15 36 34 73 44 85
119 178 176 216 52 35 166 84 197 85 21 1 22 0 9 -37z m223 -444 c105 -52 183
-126 233 -223 51 -99 55 -115 27 -115 -12 0 -65 19 -118 42 -125 55 -174 102
-235 231 -25 52 -46 101 -46 107 0 18 43 5 139 -42z m-198 -498 c-24 -152 -83
-242 -226 -342 -64 -45 -70 -48 -73 -29 -5 33 33 170 67 243 34 71 96 137 188
197 57 38 60 34 44 -69z m540 -289 c62 -20 149 -70 214 -124 l30 -25 -30 -9
c-16 -4 -84 -8 -150 -8 -115 0 -123 1 -185 32 -71 35 -188 130 -189 152 -1 22
225 9 310 -18z m-371 -245 c0 -47 -31 -170 -57 -228 -17 -39 -44 -76 -82 -109
-55 -51 -149 -119 -163 -119 -13 0 -9 40 11 116 25 98 61 173 107 224 38 42
161 140 177 140 4 0 7 -11 7 -24z m266 -268 c77 -78 110 -132 129 -205 17 -63
21 -233 6 -233 -15 0 -145 152 -174 201 -14 24 -30 60 -36 79 -13 42 -32 220
-25 232 8 13 35 -6 100 -74z"/>
<path d="M5764 6424 c7 -56 12 -64 37 -64 14 0 19 7 19 29 0 48 -17 81 -41 81
-20 0 -21 -4 -15 -46z"/>
<path d="M5343 6279 c-6 -6 -9 -18 -6 -25 9 -24 155 -144 175 -144 36 0 16 36
-54 95 -100 85 -102 87 -115 74z"/>
<path d="M6425 6112 c-86 -37 -110 -52 -110 -67 0 -32 31 -29 133 15 53 23
107 45 120 51 31 12 25 43 -8 47 -14 1 -74 -19 -135 -46z"/>
<path d="M6560 5703 c0 -22 37 -43 75 -43 28 0 33 21 11 39 -8 7 -30 15 -50
18 -31 5 -36 3 -36 -14z"/>
<path d="M5419 5388 c-60 -63 -69 -90 -35 -96 20 -4 136 102 136 125 0 7 -9
17 -21 23 -18 10 -27 4 -80 -52z"/>
</g>
</svg>
